<svg width="64" height="64" viewBox="0 0 64 64" fill="none" xmlns="http://www.w3.org/2000/svg">
<g id="icon-search">
<path id="Path" d="M56.8423 7.15821C47.3164 -2.40478 31.9404 -2.36718 22.4146 7.15821C14.3892 15.1841 12.9639 27.5972 18.8892 37.1607L16.3765 39.7105L15.0205 45.855L19.2349 50.0693L24.3271 47.6611L26.8398 45.1108C36.4033 51.0366 48.8169 49.6489 56.8423 41.5859C66.4053 32.0601 66.3677 16.6841 56.8423 7.15821Z" fill="#676E74"/>
<path id="Path_2" d="M24.3271 47.6611L26.8398 45.1108C36.4033 51.0366 48.8164 49.6489 56.8423 41.5859C66.4053 32.0601 66.3677 16.6841 56.8423 7.1582L16.583 47.4175L19.2344 50.0693L24.3271 47.6611Z" fill="#474F54"/>
<path id="Path_3" d="M54.2124 9.78711C50.48 6.0542 45.3232 3.74561 39.6274 3.74561C28.2358 3.74561 19.001 12.9805 19.001 24.3721C19.001 30.0679 21.3096 35.2246 25.042 38.9575C28.7749 42.6899 33.9316 44.9985 39.6274 44.9985C51.019 44.9985 60.2539 35.7637 60.2539 24.3721C60.2539 18.6763 57.9453 13.5195 54.2124 9.78711Z" fill="#64E1DC"/>
<path id="Path_4" d="M60.2539 24.3721C60.2539 18.6763 57.9453 13.5195 54.2124 9.78711L25.042 38.9575C28.7749 42.6899 33.9316 44.9985 39.6274 44.9985C51.019 44.9985 60.2539 35.7637 60.2539 24.3721Z" fill="#00C8C8"/>
<path id="Path_5" d="M56.2393 23.4106C56.0552 23.103 53.2593 18.4961 48.9585 15.042C46.3281 12.9287 43.1362 11.2461 39.6284 11.2461C30.3862 11.2461 23.3145 22.9146 23.0176 23.4106L22.4424 24.3721L23.0176 25.3335C23.2017 25.6416 25.9971 30.2485 30.2979 33.7026C32.9287 35.8154 36.1206 37.498 39.6284 37.498C48.8706 37.498 55.9424 25.8296 56.2393 25.3335L56.814 24.3721L56.2393 23.4106Z" fill="#EFEFF4"/>
<path id="Path_6" d="M56.2393 25.3335L56.814 24.3721L56.2393 23.4106C56.0552 23.103 53.2593 18.4961 48.9585 15.042L30.2979 33.7026C32.9287 35.8154 36.1206 37.498 39.6284 37.498C48.8706 37.498 55.9424 25.8296 56.2393 25.3335Z" fill="#DADAE5"/>
<path id="Path_7" d="M43.6045 20.3965C42.5859 19.3774 41.1792 18.7466 39.6284 18.7466C36.5264 18.7466 34.0029 21.27 34.0029 24.3721C34.0029 25.9233 34.6338 27.3296 35.6523 28.3481C36.6714 29.3667 38.0771 29.9976 39.6284 29.9976C42.7305 29.9976 45.2539 27.4741 45.2539 24.3721C45.2539 22.8213 44.623 21.415 43.6045 20.3965Z" fill="#64E1DC"/>
<path id="Path_8" d="M45.2529 24.3721C45.2529 22.8213 44.6221 21.415 43.6035 20.3965L35.6514 28.3481C36.6699 29.3667 38.0762 29.9976 39.6274 29.9976C42.7295 29.9976 45.2529 27.4741 45.2529 24.3721Z" fill="#00C8C8"/>
<path id="Path_9" d="M40.9536 23.0464C40.6143 22.707 40.1455 22.4971 39.6279 22.4971C38.5933 22.4971 37.7529 23.3374 37.7529 24.3721C37.7529 24.8896 37.9629 25.3584 38.3022 25.6978C38.6416 26.0371 39.1104 26.2471 39.6279 26.2471C40.6626 26.2471 41.5029 25.4067 41.5029 24.3721C41.5029 23.855 41.293 23.3862 40.9536 23.0464Z" fill="#676E74"/>
<path id="Path_10" d="M41.5024 24.3721C41.5024 23.855 41.2925 23.3862 40.9531 23.0464L38.3018 25.6978C38.6411 26.0371 39.1099 26.2471 39.6274 26.2471C40.6621 26.2471 41.5024 25.4067 41.5024 24.3721Z" fill="#474F54"/>
<path id="Path_11" d="M20.333 43.667L16.376 39.7104L0 56.0493L3.9751 60.0249L7.95068 64L24.3267 47.6611L20.333 43.667Z" fill="#575C60"/>
<path id="Path_12" d="M24.3271 47.6611L20.3335 43.667L3.97559 60.0249L7.95117 64L24.3271 47.6611Z" fill="#333637"/>
</g>
</svg>
